<svg width="18" height="18" viewBox="0 0 18 18" fill="none" xmlns="http://www.w3.org/2000/svg">
<path d="M13.8015 11.6679C13.8015 12.6427 13.4449 13.4466 12.7322 14.0788C12.0189 14.7111 10.9074 15.0396 9.56249 15.1875V17.4375H8.43749V15.309C6.76967 15.282 5.2678 15.0266 4.19849 14.5423V12.4144C5.38817 12.9954 7.06892 13.4083 8.43749 13.4229V9.65081L7.45649 9.3375C6.35342 8.91394 5.54792 8.40825 5.04055 7.81931C4.53261 7.23094 4.27892 6.50306 4.27892 5.63569C4.27892 4.70756 4.64061 3.94481 5.36342 3.34575C6.0868 2.74781 7.20055 2.37825 8.43749 2.25V0.5625H9.56249V2.25C10.9277 2.29669 12.3047 2.54925 13.5287 3.05381L12.7924 4.89937C11.7365 4.48256 10.6048 4.23394 9.56249 4.1535V7.82494L10.4119 8.11744C11.6893 8.6085 12.5735 9.126 13.0646 9.6705C13.5557 10.2156 13.8015 10.881 13.8015 11.6679ZM6.64986 5.61544C6.64986 6.67519 7.43117 6.894 8.43749 7.3125V4.19344C7.50317 4.33406 6.64986 4.66875 6.64986 5.61544ZM11.421 11.8192C11.421 10.8236 10.5626 10.4934 9.56249 10.125V13.3425C10.746 13.1608 11.421 12.6529 11.421 11.8192Z" fill="#D9D34C"/>
</svg>
