<svg width="16" height="16" viewBox="0 0 16 16" fill="none" xmlns="http://www.w3.org/2000/svg">
<path d="M9.96257 5.26328L10.0789 5.49902L10.3391 5.53681L14.7281 6.17439L11.5524 9.26996L11.3642 9.45343L11.4086 9.71248L12.158 14.0841L8.23268 12.0197L7.99995 11.8973L7.76721 12.0197L3.84184 14.0841L4.59273 9.71239L4.63726 9.45311L4.4488 9.26956L1.27088 6.17445L5.66082 5.53681L5.92098 5.49902L6.03732 5.26328L7.99995 1.28636L9.96257 5.26328ZM3.41721 14.3075C3.41722 14.3075 3.41724 14.3075 3.41725 14.3074L3.41721 14.3075Z" stroke="#F8C42F"/>
<path d="M8 11.5V2.5L6 6L2 6.5L5 9.5L4 14L8 11.5Z" fill="#F8C42F"/>
</svg>
