<svg width="18" height="18" viewBox="0 0 18 18" fill="none" xmlns="http://www.w3.org/2000/svg">
<path d="M16.1761 6.51572C16.0362 6.48452 15.8933 6.46877 15.75 6.46875H10.9688V3.375C10.9688 0.594563 8.46283 0.562501 8.43752 0.562501C8.36622 0.562326 8.29751 0.58924 8.2453 0.637799C8.19308 0.686357 8.16126 0.752935 8.15627 0.824063C8.05695 2.23349 7.7791 3.62461 7.3294 4.96406C7.07936 5.63484 6.5329 6.26203 6.00499 6.86841C5.37668 7.59037 4.72699 8.33681 4.50761 9.21291C4.5023 9.23529 4.49975 9.25824 4.50002 9.28125V16.875C4.50002 16.9496 4.52965 17.0211 4.5824 17.0739C4.63514 17.1266 4.70668 17.1562 4.78127 17.1562H14.2493C14.6979 17.1584 15.1337 17.0064 15.4837 16.7257C15.8337 16.445 16.0766 16.0526 16.1719 15.6142L17.6721 8.86416C17.7845 8.3544 17.6902 7.82085 17.4097 7.38058C17.1293 6.94031 16.6856 6.62927 16.1761 6.51572Z" fill="#4CD964"/>
<path d="M3.65625 7.59375H0.5625C0.40717 7.59375 0.28125 7.71967 0.28125 7.875V16.875C0.28125 17.0303 0.40717 17.1562 0.5625 17.1562H3.65625C3.81158 17.1562 3.9375 17.0303 3.9375 16.875V7.875C3.9375 7.71967 3.81158 7.59375 3.65625 7.59375Z" fill="#4CD964"/>
</svg>
