<svg width="20" height="20" viewBox="0 0 20 20" fill="none" xmlns="http://www.w3.org/2000/svg">
<path d="M20 3.79161C19.25 4.12494 18.4583 4.33328 17.625 4.45828C18.4583 3.95828 19.125 3.16661 19.4167 2.20828C18.625 2.66661 17.75 2.99994 16.7917 3.20828C16.0417 2.41661 14.9583 1.91661 13.7917 1.91661C11.5417 1.91661 9.70833 3.74994 9.70833 5.99994C9.70833 6.33328 9.75 6.62494 9.83333 6.91661C6.45833 6.74994 3.41667 5.12494 1.375 2.62494C1.04167 3.24994 0.833333 3.91661 0.833333 4.66661C0.833333 6.08328 1.54167 7.33328 2.66667 8.08328C2 8.04161 1.375 7.87494 0.791667 7.58328V7.62494C0.791667 9.62494 2.20833 11.2916 4.08333 11.6666C3.75 11.7499 3.375 11.7916 3 11.7916C2.75 11.7916 2.45833 11.7499 2.20833 11.7083C2.75 13.3333 4.25 14.5416 6.04167 14.5416C4.625 15.6249 2.875 16.2916 0.958333 16.2916C0.625 16.2916 0.291667 16.2916 0 16.2499C1.83333 17.4166 3.95833 18.0833 6.29167 18.0833C13.8333 18.0833 17.9583 11.8333 17.9583 6.41661C17.9583 6.24994 17.9583 6.04161 17.9583 5.87494C18.75 5.33328 19.4583 4.62494 20 3.79161Z" fill="white"/>
</svg>
