<svg width="18" height="18" viewBox="0 0 18 18" fill="none" xmlns="http://www.w3.org/2000/svg">
<path d="M8.99994 17.625C9.53115 17.624 10.0449 17.4353 10.4505 17.0922C10.856 16.7491 11.1272 16.2737 11.2162 15.75H6.78369C6.87267 16.2737 7.14389 16.7491 7.54943 17.0922C7.95497 17.4353 8.46874 17.624 8.99994 17.625Z" fill="#E51937"/>
<path d="M16.4303 14.4071C16.4123 14.382 14.625 11.85 14.625 9.75V6C14.625 4.50816 14.0324 3.07742 12.9775 2.02252C11.9226 0.967632 10.4919 0.375 9.00004 0.375C7.50819 0.375 6.07745 0.967632 5.02256 2.02252C3.96767 3.07742 3.37504 4.50816 3.37504 6V9.75C3.37504 11.85 1.58779 14.382 1.56979 14.4071C1.52976 14.4632 1.50595 14.5292 1.50098 14.5979C1.49601 14.6666 1.51006 14.7354 1.5416 14.7967C1.57313 14.8579 1.62093 14.9093 1.67976 14.9452C1.73858 14.981 1.80614 15 1.87504 15H16.125C16.1939 15 16.2615 14.981 16.3203 14.9452C16.3791 14.9093 16.4269 14.8579 16.4585 14.7967C16.49 14.7354 16.5041 14.6666 16.4991 14.5979C16.4941 14.5292 16.4703 14.4632 16.4303 14.4071Z" fill="#E51937"/>
</svg>
