<svg width="243" height="40" viewBox="0 0 243 40" fill="none" xmlns="http://www.w3.org/2000/svg">
<rect width="1" height="40" fill="#0F1B2B"/>
<rect x="5" width="1" height="40" fill="#0F1B2B"/>
<rect x="44" width="1" height="40" fill="#0F1B2B"/>
<rect x="49" width="2" height="40" fill="#0F1B2B"/>
<rect x="10" width="2" height="40" fill="#0F1B2B"/>
<rect x="16" width="1" height="40" fill="#0F1B2B"/>
<rect x="21" width="1" height="40" fill="#0F1B2B"/>
<rect x="26" width="1" height="40" fill="#0F1B2B"/>
<rect x="31" width="2" height="40" fill="#0F1B2B"/>
<rect x="37" width="3" height="40" fill="#0F1B2B"/>
<rect x="55" width="1" height="40" fill="#0F1B2B"/>
<rect x="60" width="1" height="40" fill="#0F1B2B"/>
<rect x="99" width="1" height="40" fill="#0F1B2B"/>
<rect x="104" width="2" height="40" fill="#0F1B2B"/>
<rect x="65" width="2" height="40" fill="#0F1B2B"/>
<rect x="71" width="1" height="40" fill="#0F1B2B"/>
<rect x="76" width="1" height="40" fill="#0F1B2B"/>
<rect x="81" width="1" height="40" fill="#0F1B2B"/>
<rect x="86" width="2" height="40" fill="#0F1B2B"/>
<rect x="92" width="3" height="40" fill="#0F1B2B"/>
<rect x="110" width="1" height="40" fill="#0F1B2B"/>
<rect x="115" width="1" height="40" fill="#0F1B2B"/>
<rect x="154" width="1" height="40" fill="#0F1B2B"/>
<rect x="159" width="2" height="40" fill="#0F1B2B"/>
<rect x="120" width="2" height="40" fill="#0F1B2B"/>
<rect x="126" width="1" height="40" fill="#0F1B2B"/>
<rect x="131" width="1" height="40" fill="#0F1B2B"/>
<rect x="136" width="1" height="40" fill="#0F1B2B"/>
<rect x="141" width="2" height="40" fill="#0F1B2B"/>
<rect x="147" width="3" height="40" fill="#0F1B2B"/>
<rect x="165" width="1" height="40" fill="#0F1B2B"/>
<rect x="170" width="1" height="40" fill="#0F1B2B"/>
<rect x="209" width="1" height="40" fill="#0F1B2B"/>
<rect x="214" width="2" height="40" fill="#0F1B2B"/>
<rect x="175" width="2" height="40" fill="#0F1B2B"/>
<rect x="181" width="1" height="40" fill="#0F1B2B"/>
<rect x="186" width="1" height="40" fill="#0F1B2B"/>
<rect x="191" width="1" height="40" fill="#0F1B2B"/>
<rect x="196" width="2" height="40" fill="#0F1B2B"/>
<rect x="202" width="3" height="40" fill="#0F1B2B"/>
<rect x="220" width="2" height="40" fill="#0F1B2B"/>
<rect x="226" width="1" height="40" fill="#0F1B2B"/>
<rect x="231" width="1" height="40" fill="#0F1B2B"/>
<rect x="236" width="1" height="40" fill="#0F1B2B"/>
<rect x="241" width="2" height="40" fill="#0F1B2B"/>
</svg>
