<svg width="18" height="18" viewBox="0 0 18 18" fill="none" xmlns="http://www.w3.org/2000/svg">
<path d="M3.7494 17.25C3.6009 17.25 3.4509 17.2061 3.32002 17.1146C2.98065 16.8769 2.89815 16.4093 3.13552 16.0699L13.6355 1.06988C13.8736 0.730875 14.3413 0.648 14.6799 0.885375C15.0193 1.12313 15.1018 1.59075 14.8644 1.93013L4.3644 16.9301C4.21852 17.1386 3.98602 17.25 3.7494 17.25Z" fill="#47CFFF"/>
<path d="M4.6875 7.875C2.92988 7.875 1.5 6.44513 1.5 4.6875V3.5625C1.5 1.80488 2.92988 0.375 4.6875 0.375C6.44513 0.375 7.875 1.80488 7.875 3.5625V4.6875C7.875 6.44513 6.44513 7.875 4.6875 7.875ZM4.6875 1.875C3.75712 1.875 3 2.63212 3 3.5625V4.6875C3 5.61788 3.75712 6.375 4.6875 6.375C5.61788 6.375 6.375 5.61788 6.375 4.6875V3.5625C6.375 2.63212 5.61788 1.875 4.6875 1.875Z" fill="#47CFFF"/>
<path d="M13.3125 17.625C11.5549 17.625 10.125 16.1951 10.125 14.4375V13.3125C10.125 11.5549 11.5549 10.125 13.3125 10.125C15.0701 10.125 16.5 11.5549 16.5 13.3125V14.4375C16.5 16.1951 15.0701 17.625 13.3125 17.625ZM13.3125 11.625C12.3821 11.625 11.625 12.3821 11.625 13.3125V14.4375C11.625 15.3679 12.3821 16.125 13.3125 16.125C14.2429 16.125 15 15.3679 15 14.4375V13.3125C15 12.3821 14.2429 11.625 13.3125 11.625Z" fill="#47CFFF"/>
</svg>
